# xmcd CD database file
#
# Track frame offsets:
#	150
#	21483
#	69439
#	94379
#	118692
#	138979
#	166748
#	200230
#	241304
#
# Disc length: 3515 seconds
#
# Revision: 0
# Processed by: cddbd v1.5.1PL0 Copyright (c) Steve Scherf et al.
# Submitted via: CDex 1.50
#
DISCID=800db909
DTITLE=Werner Neumann - canniou
DYEAR=2002
DGENRE=Jazz
TTITLE0=dombo shava
TTITLE1=uma menina
TTITLE2=canniou
TTITLE3=ocean dance
TTITLE4=two tango
TTITLE5=if i was you
TTITLE6=isabelle
TTITLE7=so that
TTITLE8=swan song
EXTD=YEAR: 2002
EXTT0=
EXTT1=
EXTT2=
EXTT3=
EXTT4=
EXTT5=
EXTT6=
EXTT7=
EXTT8=
PLAYORDER=
